<?xml version="1.0" encoding="utf-8"?>
<svg version="1.1" xmlns:xlink="http://www.w3.org/1999/xlink" width="60px" height="52px" xmlns="http://www.w3.org/2000/svg">
  <g transform="matrix(1 0 0 1 -56 -44 )">
    <path d="M 51.3754646840149 29.7084957131723  C 51.4002478314746 29.7625357235646  51.4126394052045 29.843595739153  51 29.9516757599376  L 51 49.4060795011691  C 51.4126394052045 50.1085996362692  51.1771995043371 50.7165497531826  50.7063197026022 51.2299298519096  C 50.2354399008674 51.7433099506365  49.6778190830236 52  49.0334572490706 52  L 34 52  L 34 36.4364770070148  L 26 36.4364770070148  L 26 52  L 10.9665427509294 52  C 10.3221809169765 52  9.76456009913259 51.7433099506365  9.29368029739777 51.2299298519096  C 8.82280049566295 50.7165497531826  8.58736059479554 50.1085996362692  9 49.4060795011691  L 9 29.9516757599376  C 8.58736059479554 29.9246557547415  8.59355638166047 29.8841257469473  8.60594795539033 29.8300857365549  C 8.6183395291202 29.7760457261626  8.62453531598513 29.7355157183684  8.62453531598513 29.7084957131723  L 30 10.4972720187062  L 51.3754646840149 29.7084957131723  Z M 59.9628252788104 26.2026500389712  C 59.9876084262701 26.5674201091193  59.9008674101611 26.8849051701741  59.7026022304833 27.1551052221356  L 57.3977695167286 30.1543257989088  C 57.1995043370508 30.3975058456742  56.9392812887237 30.5461158742531  56.6171003717472 30.6001558846454  L 56.5055762081784 30.6001558846454  C 56.183395291202 30.6001558846454  55.9231722428749 30.5055858664588  55.724907063197 30.3164458300857  L 30 6.93063133281372  L 4.27509293680297 30.3164458300857  C 3.97769516728625 30.532605871655  3.68029739776952 30.6271758898415  3.38289962825279 30.6001558846454  C 3.06071871127633 30.5461158742531  2.80049566294919 30.3975058456742  2.60223048327138 30.1543257989088  L 0.297397769516729 27.1551052221356  C 0.0991325898389096 26.8849051701741  0.0123915737298638 26.5674201091193  0.0371747211895911 26.2026500389712  C 0.0619578686493186 25.8378799688231  0.198265179677819 25.5474149129644  0.446096654275093 25.3312548713952  L 27.1747211895911 1.05378020265004  C 27.9677819083024 0.351260067550008  28.909541511772 0  30 0  C 31.090458488228 0  32.0322180916977 0.351260067550008  32.8252788104089 1.05378020265004  L 41.8959107806691 9.32190179267342  L 41.8959107806691 1.41855027279813  C 41.8959107806691 1.04027020005196  42.0074349442379 0.729540140296179  42.2304832713755 0.48636009353079  C 42.453531598513 0.243180046765395  42.7385377942999 0.121590023382697  43.0855018587361 0.121590023382697  L 50.2230483271375 0.121590023382697  C 50.5700123915737 0.121590023382697  50.8550185873606 0.243180046765395  51.0780669144981 0.48636009353079  C 51.3011152416357 0.729540140296179  51.4126394052045 1.04027020005196  51 1.41855027279813  L 51 17.9547934528449  L 59.5539033457249 25.3312548713952  C 59.8017348203222 25.5474149129644  59.9380421313507 25.8378799688231  59.9628252788104 26.2026500389712  Z " fill-rule="nonzero" fill="#d7d7d7" stroke="none" fill-opacity="0.4" transform="matrix(1 0 0 1 56 44 )" />
  </g>
</svg>